<?xml version="1.0" encoding="utf-8"?>
<!-- Generator: Adobe Illustrator 16.0.0, SVG Export Plug-In . SVG Version: 6.00 Build 0)  -->
<!DOCTYPE svg PUBLIC "-//W3C//DTD SVG 1.1//EN" "http://www.w3.org/Graphics/SVG/1.1/DTD/svg11.dtd">
<svg version="1.1" id="Layer_1" xmlns="http://www.w3.org/2000/svg" xmlns:xlink="http://www.w3.org/1999/xlink" x="0px" y="0px"
	 width="566.93px" height="566.93px" viewBox="0 0 566.93 566.93" enable-background="new 0 0 566.93 566.93" xml:space="preserve">
<path fill="#FFFFFF" d="M-0.053,510.284c0,31.313,25.385,56.698,56.698,56.698c151.195,0,302.391,0,453.586,0
	c31.313,0,56.698-25.385,56.698-56.698c0-151.195,0-302.391,0-453.586C566.93,25.386,541.544,0,510.231,0
	C359.036,0,207.841,0,56.646,0C25.332,0-0.053,25.386-0.053,56.698C-0.053,207.894-0.053,359.089-0.053,510.284z"/>
<g>
	<polygon points="282.303,318.081 236.981,291.915 236.981,344.248 282.303,370.414 	"/>
	<polygon points="341.235,344.248 341.235,291.915 295.913,318.081 295.913,370.414 	"/>
	<polygon points="289.107,306.295 243.786,280.128 289.107,253.961 334.431,280.128 	"/>
</g>
<path d="M408.175,113.397c-83.158,0-166.315,0-249.473,0c-25.051,0-45.358,20.307-45.358,45.358c0,98.278,0,196.554,0,294.831
	c113.396,0,226.792,0,340.189,0c0-98.277,0-196.553,0-294.831C453.533,133.704,433.225,113.397,408.175,113.397z M351.477,419.567
	c-6.264,0-11.341-5.078-11.341-11.34c0-6.263,5.077-11.34,11.341-11.34c6.262,0,11.339,5.077,11.339,11.34
	C362.815,414.489,357.738,419.567,351.477,419.567z M430.854,419.567h-45.357v-22.68h45.357V419.567z M430.854,362.869
	c-27.108,0-54.214,0-81.323,0c-6.015,0-11.783,2.39-16.037,6.642c-10.69,10.692-21.382,21.384-32.072,32.073
	c-4.254,4.255-10.022,6.644-16.037,6.644c-49.787,0-99.574,0-149.361,0c0-71.818,0-143.635,0-215.453c45.359,0,90.717,0,136.076,0
	c0,7.56,0,15.119,0,22.679c0,6.264,5.077,11.341,11.339,11.341c0,3.778,0,7.559,0,11.338c3.781,0,7.561,0,11.341,0
	c0-3.779,0-7.56,0-11.338c6.262,0,11.34-5.077,11.34-11.341c0-7.56,0-15.119,0-22.679c41.577,0,83.157,0,124.735,0
	C430.854,249.473,430.854,306.172,430.854,362.869z M430.854,181.435c-41.578,0-83.158,0-124.735,0c0-3.78,0-7.56,0-11.34
	c-11.34,0-22.681,0-34.02,0c0,3.78,0,7.56,0,11.34c-45.358,0-90.717,0-136.076,0c0-7.56,0-15.121,0-22.68
	c0-12.524,10.154-22.679,22.679-22.679c83.158,0,166.314,0,249.473,0c12.524,0,22.679,10.155,22.679,22.679
	C430.854,166.314,430.854,173.875,430.854,181.435z"/>
</svg>
