<?xml version="1.0" ?><!DOCTYPE svg  PUBLIC '-//W3C//DTD SVG 1.1//EN'  'http://www.w3.org/Graphics/SVG/1.1/DTD/svg11.dtd'><svg enable-background="new 0 0 512 512" height="512px" id="Layer_1" version="1.1" viewBox="0 0 512 512" width="512px" xml:space="preserve" xmlns="http://www.w3.org/2000/svg" xmlns:xlink="http://www.w3.org/1999/xlink"><g><path d="M363.922,313c9.703,10.359,1.484,25.453-18.375,33.734c-19.828,8.266-43.766,6.608-53.5-3.719   c-9.672-10.375-1.469-25.47,18.406-33.767C330.281,300.984,354.219,302.641,363.922,313z M223,342.469   c17.875-7.453,25.266-21.031,16.531-30.359c-8.735-9.327-30.281-10.813-48.125-3.375c-17.875,7.47-25.266,21.048-16.563,30.392   C183.609,348.422,205.156,349.906,223,342.469z M105.969,269.813c-15.906,6.642-22.469,18.703-14.734,27.017   c7.797,8.266,26.938,9.578,42.797,2.969c15.891-6.625,22.469-18.688,14.703-26.983   C140.969,264.518,121.828,263.203,105.969,269.813z M208.281,253.922c13.906-5.797,19.656-16.344,12.875-23.609   c-6.813-7.266-23.547-8.406-37.422-2.625c-13.922,5.813-19.672,16.359-12.891,23.641   C177.656,258.563,194.406,259.703,208.281,253.922z M465.406,306.688c-93.719-63.063-3.656-58.405-31.656-96.313   c-9.234-12.5-37.734-21.469-71.781-27.109l-0.922,22.328c24.094,4.297,39.547,9.484,47.297,12.609   c1.392,0.563,2.406,1.766,2.75,3.219c0.328,1.453-0.078,2.984-1.078,4.094c-6.358,7-17.108,21.188-16.03,36.141   c1.452,20.219,8.03,39.202,51.702,68.905c1.642,1.125,2.72,2.892,2.97,4.859c0.233,1.969-0.375,3.953-1.688,5.438   C435.063,354.219,396.203,384,286.281,384C208.016,384,60,363.094,60,284c0-14.953,6.125-38.844,59.188-59.891   c42.766-16.969,82.156-24.359,136.313-25.469l9.688-22.563c-59.954,0.391-105.844,7.578-156.313,27.594   C76.688,216.438,32,240,32,288c0,82.438,102.766,115.047,192.625,124.656c-2.063,36.469,0.891,63.688,12.75,67   c13.234,3.719,31.406-24.438,49.5-63.672C477,415.813,502.734,331.797,465.406,306.688z M304.406,141.219L255.89,254.266   c0,0,8.172,15.421,36.109,21.343c29,6.142,43.891-5.344,43.891-5.344l4.781-117.594c18.578-6.375,35.517-18.406,41.017-37.938   c12.25-43.359-29.642-48.234,0.969-88.266c1.313-1.719,1.578-4.047,0.766-6.063c-0.875-2.031-2.719-3.453-4.891-3.734   C308.406,6.875,260.594,107.313,304.406,141.219z" fill="#4D4D4D"/></g></svg>