<?xml version="1.0" ?><!DOCTYPE svg  PUBLIC '-//W3C//DTD SVG 1.1//EN'  'http://www.w3.org/Graphics/SVG/1.1/DTD/svg11.dtd'><svg enable-background="new 0 0 512 512" height="512px" id="Layer_1" version="1.1" viewBox="0 0 512 512" width="512px" xml:space="preserve" xmlns="http://www.w3.org/2000/svg" xmlns:xlink="http://www.w3.org/1999/xlink"><g><path d="M480,144v-32c0-8.836-7.156-16-16-16h-32V62c0-7.734-6.281-14-14-14h-18   c-87.281,0-129.469,38.766-144,55.469C241.469,86.766,199.281,48,112,48H94c-7.719,0-14,6.266-14,14v34H48c-8.844,0-16,7.164-16,16   v32c-8.828,0.008-16,7.164-16,16v232.031c0,17.672,14.313,32,32,32c176,0,160,39.969,208,39.969s32-39.969,208-39.969   c17.688,0,32-14.328,32-32V160C496,151.164,488.844,144,480,144z M67.984,384.016C65.781,384,64,382.203,64,380V132.969   c0-1.32,0.516-2.586,1.453-3.516c0.937-0.93,2.203-1.445,3.516-1.438c3.891,0.023,7.313,0.219,11.031,0.297v223.656   c0,6.875,5.469,12.484,12.344,12.681c81.594,2.297,117.438,27.367,133.656,47.944C200.172,398.734,153.078,384.453,67.984,384.016z    M240,387.25c0,0-31.281-49.773-124.75-50.906c-1.813-0.023-3.25-1.5-3.25-3.305V83.641c0-0.883,0.344-1.727,0.969-2.344   c0.625-0.625,1.484-0.969,2.375-0.953c93.391,1.203,124.656,52.5,124.656,52.5V387.25z M272,387.25V132.844   c0,0,31.25-51.297,124.656-52.5c0.875-0.016,1.733,0.328,2.358,0.953c0.642,0.617,0.984,1.461,0.984,2.344v249.398   c0,1.805-1.453,3.281-3.25,3.305C303.281,337.477,272,387.25,272,387.25z M448,380c0,2.203-1.781,4-4,4.016   c-73.359,0.375-118.531,11.047-146.156,22.875c16.328-19.219,50.063-40.094,121.844-42.233c6.859-0.203,12.313-5.813,12.313-12.681   V128.313c3.719-0.078,7.141-0.273,11.016-0.297c1.328-0.008,2.578,0.508,3.517,1.438c0.938,0.93,1.469,2.195,1.469,3.516V380H448z" fill="#4D4D4D"/></g></svg>