<?xml version="1.0" ?><!DOCTYPE svg  PUBLIC '-//W3C//DTD SVG 1.1//EN'  'http://www.w3.org/Graphics/SVG/1.1/DTD/svg11.dtd'><svg enable-background="new 0 0 512 512" height="512px" id="Layer_1" version="1.1" viewBox="0 0 512 512" width="512px" xml:space="preserve" xmlns="http://www.w3.org/2000/svg" xmlns:xlink="http://www.w3.org/1999/xlink"><g><path d="M272,320h96v13.25c0,10.359-8.391,18.75-18.75,18.75h-58.5c-10.359,0-18.75-8.391-18.75-18.75V320z    M305.594,192c0,27.344-22.25,49.594-49.594,49.594v42.656c0,10.906,8.844,19.75,19.75,19.75h88.5   c10.906,0,19.75-8.844,19.75-19.75V99.75C384,88.844,375.156,80,364.25,80H352V32c0-8.844-7.156-16-16-16h-32   c-8.844,0-16,7.156-16,16v48h-12.25C264.844,80,256,88.844,256,99.75v42.656C283.344,142.406,305.594,164.656,305.594,192z    M256,224c17.672,0,32-14.344,32-32s-14.328-32-32-32s-32,14.344-32,32S238.328,224,256,224z M432,471.25v3.5   c0,2.906-2.344,5.25-5.25,5.25H69.25c-2.906,0-5.25-2.344-5.25-5.25v-3.5C64,458.406,74.406,448,87.25,448H96v-48   c0-8.578,1.75-16.719,4.813-24.188C87.656,355.281,80,331.297,80,305.563c0-71.188,57.938-129.5,131.688-135.405   c-3.281,6.609-5.281,13.969-5.281,21.844c0,9.578,2.844,18.453,7.563,26.047c-48.236,4.608-85.97,42.108-85.97,87.515   c0,12.517,3.156,24.297,8.313,35.095C143.656,337.719,151.625,336,160,336c35.344,0,64,28.656,64,64h16c0-8.844,7.156-16,16-16h128   c8.844,0,16,7.156,16,16s-7.156,16-16,16H272h-16h-32v32h184.75C421.594,448,432,458.406,432,471.25z M180,400   c0-11.063-8.953-20-20-20s-20,8.938-20,20s8.953,20,20,20S180,411.063,180,400z" fill="#4D4D4D"/></g></svg>