<svg style="position: absolute; width: 0; height: 0;" width="0" height="0" version="1.1" xmlns="http://www.w3.org/2000/svg" xmlns:xlink="http://www.w3.org/1999/xlink">
  <defs>
    <symbol id="icon-facebook" viewBox="0 0 1024 1024">
      <path class="path1" d="M608 192h160v-192h-160c-123.514 0-224 100.486-224 224v96h-128v192h128v512h192v-512h160l32-192h-192v-96c0-17.346 14.654-32 32-32z"></path>
    </symbol>
    <symbol id="icon-twitter" viewBox="0 0 1024 1024">
      <path class="path1" d="M1024 226.4c-37.6 16.8-78.2 28-120.6 33 43.4-26 76.6-67.2 92.4-116.2-40.6 24-85.6 41.6-133.4 51-38.4-40.8-93-66.2-153.4-66.2-116 0-210 94-210 210 0 16.4 1.8 32.4 5.4 47.8-174.6-8.8-329.4-92.4-433-219.6-18 31-28.4 67.2-28.4 105.6 0 72.8 37 137.2 93.4 174.8-34.4-1-66.8-10.6-95.2-26.2 0 0.8 0 1.8 0 2.6 0 101.8 72.4 186.8 168.6 206-17.6 4.8-36.2 7.4-55.4 7.4-13.6 0-26.6-1.4-39.6-3.8 26.8 83.4 104.4 144.2 196.2 146-72 56.4-162.4 90-261 90-17 0-33.6-1-50.2-3 93.2 59.8 203.6 94.4 322.2 94.4 386.4 0 597.8-320.2 597.8-597.8 0-9.2-0.2-18.2-0.6-27.2 41-29.4 76.6-66.4 104.8-108.6z"></path>
    </symbol>
    <symbol id="icon-youtube" viewBox="0 0 1024 1024">
      <path class="path1" d="M1013.8 307.2c0 0-10-70.6-40.8-101.6-39-40.8-82.6-41-102.6-43.4-143.2-10.4-358.2-10.4-358.2-10.4h-0.4c0 0-215 0-358.2 10.4-20 2.4-63.6 2.6-102.6 43.4-30.8 31-40.6 101.6-40.6 101.6s-10.2 82.8-10.2 165.8v77.6c0 82.8 10.2 165.8 10.2 165.8s10 70.6 40.6 101.6c39 40.8 90.2 39.4 113 43.8 82 7.8 348.2 10.2 348.2 10.2s215.2-0.4 358.4-10.6c20-2.4 63.6-2.6 102.6-43.4 30.8-31 40.8-101.6 40.8-101.6s10.2-82.8 10.2-165.8v-77.6c-0.2-82.8-10.4-165.8-10.4-165.8zM406.2 644.8v-287.8l276.6 144.4-276.6 143.4z"></path>
    </symbol>
    <symbol id="icon-vimeo" viewBox="0 0 1024 1024">
      <path class="path1" d="M928 0h-832c-52.8 0-96 43.2-96 96v832c0 52.8 43.2 96 96 96h832c52.8 0 96-43.2 96-96v-832c0-52.8-43.2-96-96-96zM861.6 340c-3.2 72-53.6 170.6-151 295.8-100.6 130.8-185.8 196.2-255.4 196.2-43.2 0-79.6-39.8-109.4-119.4-20-73-39.8-146-59.8-219-22-79.6-45.8-119.4-71.2-119.4-5.6 0-25 11.6-58 34.8l-34.8-44.8c36.6-32 72.6-64.2 108-96.2 48.8-42 85.2-64.2 109.6-66.4 57.6-5.6 93 33.8 106.4 118 14.4 91 24.4 147.4 30 169.6 16.6 75.4 34.8 113 54.8 113 15.4 0 38.8-24.4 69.8-73.4s47.6-86.2 49.8-111.8c4.4-42.2-12.2-63.4-49.8-63.4-17.8 0-36 4-54.8 12.2 36.4-119 105.8-177 208.4-173.6 76 2.2 111.8 51.4 107.4 147.8z"></path>
    </symbol>
    <symbol id="icon-flickr" viewBox="0 0 1024 1024">
      <path class="path1" d="M928 0h-832c-52.8 0-96 43.2-96 96v832c0 52.8 43.2 96 96 96h832c52.8 0 96-43.2 96-96v-832c0-52.8-43.2-96-96-96zM288 672c-88.4 0-160-71.6-160-160s71.6-160 160-160 160 71.6 160 160-71.6 160-160 160zM736 672c-88.4 0-160-71.6-160-160s71.6-160 160-160c88.4 0 160 71.6 160 160s-71.6 160-160 160z"></path>
    </symbol>
    <symbol id="icon-github" viewBox="0 0 1024 1024">
      <path class="path1" d="M512.008 12.642c-282.738 0-512.008 229.218-512.008 511.998 0 226.214 146.704 418.132 350.136 485.836 25.586 4.738 34.992-11.11 34.992-24.632 0-12.204-0.48-52.542-0.696-95.324-142.448 30.976-172.504-60.41-172.504-60.41-23.282-59.176-56.848-74.916-56.848-74.916-46.452-31.778 3.51-31.124 3.51-31.124 51.4 3.61 78.476 52.766 78.476 52.766 45.672 78.27 119.776 55.64 149.004 42.558 4.588-33.086 17.852-55.68 32.506-68.464-113.73-12.942-233.276-56.85-233.276-253.032 0-55.898 20.004-101.574 52.76-137.428-5.316-12.9-22.854-64.972 4.952-135.5 0 0 43.006-13.752 140.84 52.49 40.836-11.348 84.636-17.036 128.154-17.234 43.502 0.198 87.336 5.886 128.256 17.234 97.734-66.244 140.656-52.49 140.656-52.49 27.872 70.528 10.35 122.6 5.036 135.5 32.82 35.856 52.694 81.532 52.694 137.428 0 196.654-119.778 239.95-233.79 252.624 18.364 15.89 34.724 47.046 34.724 94.812 0 68.508-0.596 123.644-0.596 140.508 0 13.628 9.222 29.594 35.172 24.566 203.322-67.776 349.842-259.626 349.842-485.768 0-282.78-229.234-511.998-511.992-511.998z"></path>
    </symbol>
    <symbol id="icon-science" viewBox="0 0 463 463">
      <path d="M409.264,394.257L284.965,145.659c-3.902-7.804-5.964-16.542-5.964-25.268V23.5c0-4.687,3.813-8.5,8.5-8.5 c0.007,0,0.013-0.001,0.02-0.001S287.533,15,287.54,15c4.142,0,7.5-3.358,7.5-7.5s-3.358-7.5-7.5-7.5h-0.04h-112 c-4.142,0-7.5,3.358-7.5,7.5s3.358,7.5,7.5,7.5c4.687,0,8.5,3.813,8.5,8.5v96.892c0,8.726-2.063,17.463-5.965,25.268 L53.737,394.257c-7.417,14.832-6.639,32.108,2.079,46.215C64.533,454.579,79.638,463,96.221,463h270.557 c16.583,0,31.688-8.421,40.406-22.528C415.903,426.366,416.68,409.089,409.264,394.257z M394.425,432.586 c-5.965,9.651-16.3,15.414-27.646,15.414H96.221c-11.346,0-21.681-5.762-27.646-15.414c-5.965-9.652-6.497-21.473-1.423-31.621 l124.299-248.598c4.938-9.876,7.549-20.934,7.549-31.976V23.5c0-2.996-0.563-5.863-1.59-8.5h68.181 c-1.027,2.637-1.59,5.504-1.59,8.5v96.892c0,11.042,2.61,22.1,7.548,31.976l124.299,248.598 C400.922,411.114,400.39,422.935,394.425,432.586z"></path>
      <path d="M330.431,308.146c-1.271-2.541-3.867-4.146-6.708-4.146H139.278c-2.841,0-5.438,1.605-6.708,4.146L82.358,408.569 c-2.456,4.913-2.208,10.41,0.679,15.08C85.924,428.32,90.73,431,96.221,431h270.558c5.492,0,10.297-2.68,13.185-7.351 c2.888-4.671,3.135-10.168,0.679-15.081L330.431,308.146z M367.204,415.763c-0.087,0.142-0.16,0.219-0.137,0.211 c-0.019,0.005-0.106,0.026-0.289,0.026H96.221c-0.136,0-0.219-0.012-0.246-0.012c-0.003,0-0.006,0-0.007,0.001 c-0.031-0.03-0.095-0.102-0.173-0.228c-0.086-0.139-0.12-0.242-0.127-0.215c0.004-0.02,0.024-0.106,0.106-0.27L143.913,319h175.175 l48.138,96.276c0.069,0.139,0.095,0.223,0.104,0.232C367.317,415.548,367.281,415.638,367.204,415.763z"></path>
      <path d="M183.5,352c-1.97,0-3.91,0.8-5.3,2.2c-1.4,1.39-2.2,3.33-2.2,5.3c0,1.97,0.8,3.91,2.2,5.3c1.39,1.4,3.33,2.2,5.3,2.2 c1.97,0,3.91-0.8,5.3-2.2c1.4-1.39,2.2-3.33,2.2-5.3c0-1.97-0.8-3.91-2.2-5.3C187.41,352.8,185.47,352,183.5,352z"></path>
      <path d="M231.5,376c-1.97,0-3.91,0.8-5.3,2.2c-1.4,1.39-2.2,3.33-2.2,5.3c0,1.97,0.8,3.91,2.2,5.3c1.39,1.4,3.33,2.2,5.3,2.2 c1.97,0,3.91-0.8,5.3-2.2c1.4-1.39,2.2-3.33,2.2-5.3c0-1.97-0.8-3.91-2.2-5.3C235.41,376.8,233.47,376,231.5,376z"></path>
      <path d="M242.2,266.2c-1.4,1.39-2.2,3.33-2.2,5.3c0,1.97,0.8,3.91,2.2,5.3c1.39,1.4,3.33,2.2,5.3,2.2c1.97,0,3.91-0.8,5.3-2.2 c1.4-1.39,2.2-3.33,2.2-5.3c0-1.97-0.8-3.91-2.2-5.3c-1.39-1.4-3.33-2.2-5.3-2.2C245.53,264,243.59,264.8,242.2,266.2z"></path>
      <path d="M215.5,215c1.97,0,3.91-0.8,5.3-2.2c1.4-1.39,2.2-3.33,2.2-5.3c0-1.97-0.8-3.91-2.2-5.3c-1.39-1.4-3.33-2.2-5.3-2.2 c-1.97,0-3.91,0.8-5.3,2.2c-1.4,1.39-2.2,3.32-2.2,5.3s0.8,3.91,2.2,5.3C211.59,214.2,213.53,215,215.5,215z"></path>
      <path d="M279.5,344c-1.97,0-3.91,0.8-5.3,2.2c-1.4,1.39-2.2,3.33-2.2,5.3c0,1.97,0.8,3.91,2.2,5.3c1.39,1.4,3.33,2.2,5.3,2.2 c1.97,0,3.91-0.8,5.3-2.2c1.4-1.39,2.2-3.33,2.2-5.3c0-1.97-0.8-3.91-2.2-5.3C283.41,344.8,281.47,344,279.5,344z"></path>
      <path d="M242.927,166.678l53.887,107.773c1.314,2.628,3.962,4.147,6.714,4.147c1.127,0,2.271-0.255,3.348-0.793 c3.705-1.852,5.207-6.357,3.354-10.062L256.343,159.97c-1.852-3.705-6.357-5.208-10.062-3.354 C242.576,158.468,241.074,162.974,242.927,166.678z"></path>
      <path d="M240.699,143.006c0.394,0,0.794-0.031,1.195-0.095c4.09-0.655,6.875-4.501,6.22-8.592c-0.739-4.614-1.114-9.3-1.114-13.927 c0-4.142-3.358-7.5-7.5-7.5s-7.5,3.358-7.5,7.5c0,5.419,0.438,10.903,1.302,16.299 C233.893,140.379,237.079,143.006,240.699,143.006z"></path>
    </symbol>
    <symbol id="icon-puppet" viewBox="0 0 493 493">
      <path d="M355.244,149.88c4.971,0,9,4.029,9,9v89.284c0,4.971-4.029,9-9,9s-9-4.029-9-9V158.88 C346.244,153.91,350.273,149.88,355.244,149.88z M410.178,37.868c-4.971,0-9,4.029-9,9v188.351c0,4.971,4.029,9,9,9s9-4.029,9-9 V46.868C419.178,41.898,415.149,37.868,410.178,37.868z M236.377,102.72v49.043c0,4.971,4.029,9,9,9s9-4.029,9-9V102.72 c0-4.971-4.029-9-9-9S236.377,97.749,236.377,102.72z M83.419,133.887l43.087-14.362v74.324c0,4.971,4.029,9,9,9s9-4.029,9-9 v-80.324l100.18-33.394l123.349,61.675c4.444,2.224,9.852,0.421,12.075-4.024c2.223-4.446,0.421-9.853-4.025-12.075l-107.25-53.625 l144.191-48.063c4.715-1.571,7.264-6.669,5.692-11.384c-1.572-4.716-6.668-7.263-11.384-5.692L246.068,60.698L126.578,0.952 c-4.444-2.224-9.852-0.421-12.075,4.024c-2.223,4.446-0.421,9.853,4.025,12.075l103.39,51.695l-77.412,25.804V46.868 c0-4.971-4.029-9-9-9s-9,4.029-9,9v53.683l-48.78,16.26c-4.715,1.571-7.264,6.669-5.692,11.384 C73.606,132.91,78.7,135.458,83.419,133.887z M425.201,281.514l-41.869,20.935c0.183,1.3,0.278,2.629,0.278,3.979 c0,15.64-12.724,28.363-28.363,28.363c-12.576,0-23.266-8.228-26.973-19.581l-53.533-0.437v70.569l60.685,31.099 c5.117-5.005,12.115-8.094,19.821-8.094c15.64,0,28.363,12.725,28.363,28.364s-12.724,28.363-28.363,28.363 c-4.097,0-7.993-0.873-11.514-2.442l-25.38,27.744c-1.775,1.94-4.205,2.925-6.643,2.925c-2.169,0-4.345-0.779-6.072-2.359 c-3.667-3.355-3.921-9.048-0.566-12.716l25.383-27.746c-2.275-4.08-3.571-8.775-3.571-13.769c0-1.447,0.109-2.869,0.319-4.259 l-56.396-28.901c-5.083,8.776-14.578,14.691-25.429,14.691c-10.85,0-20.344-5.916-25.428-14.69l-56.397,28.9 c0.21,1.39,0.319,2.812,0.319,4.259c0,4.993-1.296,9.688-3.571,13.769l25.382,27.746c3.355,3.668,3.102,9.36-0.566,12.716 c-3.667,3.354-9.36,3.103-12.715-0.566l-25.38-27.743c-3.521,1.569-7.417,2.442-11.514,2.442c-15.639,0-28.363-12.724-28.363-28.363 s12.724-28.364,28.363-28.364c7.707,0,14.704,3.089,19.821,8.094l60.686-31.098V301.08l-60.486-30.243 c-5.134,5.121-12.214,8.291-20.021,8.291c-7.806,0-14.885-3.17-20.019-8.29L76.15,290.506c-4.446,2.225-9.852,0.421-12.075-4.025 c-2.223-4.445-0.421-9.852,4.025-12.074l39.322-19.66c-0.184-1.302-0.278-2.631-0.278-3.982c0-15.64,12.724-28.363,28.363-28.363 c15.64,0,28.364,12.724,28.364,28.363c0,1.351-0.095,2.681-0.278,3.981l56.542,28.271c3.626-6.084,9.387-10.753,16.242-12.965 v-11.631c-15.771-4.018-27.469-18.34-27.469-35.343v-6.107c0-20.107,16.36-36.467,36.469-36.467 c20.109,0,36.469,16.359,36.469,36.467v6.107c0,17.004-11.698,31.327-27.469,35.344v11.63c11.43,3.688,19.819,14.205,20.338,26.721 l53.705,0.437c3.835-11.128,14.413-19.146,26.827-19.146c7.807,0,14.888,3.171,20.022,8.293l41.883-20.941 c4.445-2.221,9.852-0.421,12.075,4.024C431.449,273.885,429.647,279.291,425.201,281.514z M145.87,250.764 c0-5.714-4.649-10.363-10.364-10.363c-5.714,0-10.363,4.649-10.363,10.363c0,5.715,4.649,10.364,10.363,10.364 C141.221,261.128,145.87,256.479,145.87,250.764z M145.87,436.711c0-5.715-4.649-10.364-10.364-10.364 c-5.714,0-10.363,4.649-10.363,10.364c0,5.714,4.649,10.363,10.363,10.363C141.221,447.075,145.87,442.425,145.87,436.711z M245.377,241.545c10.184,0,18.469-8.284,18.469-18.467v-6.107c0-10.183-8.285-18.467-18.468-18.467h-0.001 c-10.184,0-18.469,8.284-18.469,18.467v6.107C226.908,233.261,235.193,241.545,245.377,241.545z M256.74,298.005 c0-6.266-5.098-11.363-11.364-11.363c-5.148,0-9.509,3.442-10.899,8.146c-0.46,3.53-0.462,6.153-0.46,9.801 c0.013,20.086,0.056,85.434,0.063,85.526c0.618,5.686,5.448,10.127,11.296,10.127c6.266,0,11.364-5.098,11.364-11.363v-83.141 c0-0.024,0-0.049,0-0.074V298.005z M344.882,436.711c0,5.714,4.649,10.363,10.364,10.363s10.363-4.649,10.363-10.363 c0-5.715-4.649-10.364-10.363-10.364S344.882,430.996,344.882,436.711z M365.61,306.427c0-5.715-4.649-10.364-10.363-10.364 c-5.648,0-10.256,4.542-10.362,10.165c0,0.039,0,0.078,0,0.116c0,0.038,0,0.075-0.001,0.113c0.017,5.7,4.659,10.333,10.364,10.333 C360.961,316.79,365.61,312.142,365.61,306.427z M144.183,385.802v-85.087c0-4.971-4.029-9-9-9s-9,4.029-9,9v85.087 c0,4.971,4.029,9,9,9S144.183,390.773,144.183,385.802z M71.573,151.589v83.63c0,4.971,4.029,9,9,9s9-4.029,9-9v-83.63 c0-4.971-4.029-9-9-9S71.573,146.618,71.573,151.589z M346.246,353.218v37.108c0,4.971,4.029,9,9,9s9-4.029,9-9v-37.108 c0-4.971-4.029-9-9-9S346.246,348.247,346.246,353.218z"></path>
    </symbol>
    <symbol id="icon-education" viewBox="0 0 463 463">
      <path d="M439.5,92h-8.622c-0.015-15.242-0.026-24.509-0.026-24.509c-0.005-4.139-3.361-7.491-7.5-7.491 c-110.843,0-176.933,25.047-191.78,31.337C216.711,85.05,150.522,60,39.5,60c-4.139,0-7.495,3.353-7.5,7.491 c0,0-0.01,9.267-0.026,24.509H23.5C10.542,92,0,102.542,0,115.5v264C0,392.458,10.542,403,23.5,403h416 c12.958,0,23.5-10.542,23.5-23.5v-264C463,102.542,452.458,92,439.5,92z M415.932,356.038 c-93.47,0.951-153.82,19.652-176.932,28.346V104.526c16.004-6.445,77.69-28.42,176.86-29.486 C415.96,166.015,416.079,321.073,415.932,356.038z M224,104.469v279.864c-23.245-8.716-83.637-27.35-177.08-28.296 c-0.134-31.924-0.047-163.943,0.046-255.91c0.017-0.207,0.032-0.415,0.032-0.627c0-0.203-0.015-0.403-0.03-0.602 c0.008-8.321,0.017-16.313,0.025-23.858C146.035,76.1,207.749,97.951,224,104.469z M15,379.5v-264c0-4.687,3.813-8.5,8.5-8.5h8.459 c-0.027,28.295-0.062,68.323-0.084,108.371c-0.021,36.981-0.031,73.975-0.016,101.742c0.008,13.89,0.022,25.473,0.044,33.593 c0.012,4.073,0.025,7.277,0.041,9.469c0.034,4.673,0.046,6.421,2.249,8.625c1.407,1.408,3.316,2.2,5.307,2.2 c64.093,0,113.209,8.753,145.26,17H23.5C18.813,388,15,384.187,15,379.5z M448,379.5c0,4.687-3.813,8.5-8.5,8.5H278.319 c32.002-8.247,81.041-17,145.033-17c1.991,0,3.9-0.792,5.307-2.2c2.202-2.204,2.215-3.952,2.249-8.625 c0.016-2.191,0.029-5.396,0.041-9.469c0.023-8.12,0.037-19.703,0.045-33.593c0.016-27.768,0.005-64.76-0.016-101.742 c-0.023-40.048-0.057-80.076-0.085-108.371h8.608c4.687,0,8.5,3.813,8.5,8.5V379.5z"></path>
      <path d="M126.489,127.95c25.47,3.461,49.323,8.413,70.896,14.719c0.703,0.205,1.411,0.303,2.107,0.303 c3.246,0,6.239-2.125,7.195-5.397c1.162-3.977-1.119-8.142-5.095-9.304c-22.287-6.514-46.876-11.622-73.084-15.184 c-4.107-0.564-7.884,2.317-8.441,6.422S122.385,127.393,126.489,127.95z"></path>
      <path d="M71.158,122.992c7.941,0.364,15.924,0.876,23.727,1.521c0.21,0.018,0.419,0.025,0.626,0.025 c3.862,0,7.143-2.965,7.466-6.883c0.341-4.128-2.729-7.751-6.857-8.092c-7.984-0.659-16.151-1.183-24.274-1.556 c-4.123-0.162-7.646,3.011-7.836,7.148C63.82,119.294,67.021,122.803,71.158,122.992z"></path>
      <path d="M201.594,192.271c-15.129-4.423-31.535-8.241-48.763-11.349c-4.079-0.735-7.978,1.974-8.712,6.05 c-0.735,4.076,1.973,7.977,6.049,8.712c16.709,3.014,32.595,6.709,47.217,10.983c0.703,0.206,1.411,0.304,2.108,0.304 c3.246,0,6.238-2.125,7.195-5.397C207.85,197.599,205.569,193.434,201.594,192.271z"></path>
      <path d="M71.158,186.992c16.106,0.739,32.065,2.065,47.434,3.939c0.308,0.038,0.615,0.057,0.917,0.057 c3.737,0,6.972-2.789,7.436-6.593c0.501-4.111-2.425-7.852-6.537-8.353c-15.741-1.921-32.08-3.278-48.563-4.035 c-4.123-0.163-7.646,3.011-7.836,7.148C63.82,183.294,67.02,186.802,71.158,186.992z"></path>
      <path d="M197.385,174.669c0.702,0.205,1.411,0.303,2.107,0.303c3.246,0,6.239-2.124,7.195-5.397 c1.162-3.976-1.119-8.141-5.095-9.304c-5.233-1.529-10.708-3.01-16.271-4.4c-4.014-1-8.09,1.439-9.095,5.458 c-1.004,4.019,1.439,8.091,5.458,9.095C187.058,171.766,192.34,173.194,197.385,174.669z"></path>
      <path d="M71.158,154.992c27.421,1.258,54.004,4.183,79.011,8.692c0.45,0.081,0.898,0.12,1.34,0.12c3.559,0,6.718-2.544,7.372-6.17 c0.735-4.076-1.973-7.977-6.05-8.712c-25.656-4.627-52.904-7.627-80.985-8.915c-4.123-0.172-7.646,3.011-7.836,7.148 C63.82,151.294,67.021,154.803,71.158,154.992z"></path>
      <path d="M201.594,224.271c-24.638-7.201-51.955-12.662-81.191-16.229c-4.109-0.505-7.852,2.424-8.353,6.536 c-0.501,4.111,2.425,7.852,6.537,8.353c28.429,3.469,54.941,8.764,78.799,15.738c0.703,0.205,1.411,0.303,2.108,0.303 c3.246,0,6.239-2.125,7.195-5.397C207.85,229.599,205.569,225.434,201.594,224.271z"></path>
      <path d="M71.158,218.992c5.299,0.243,10.619,0.552,15.812,0.915c0.179,0.013,0.356,0.019,0.532,0.019 c3.903,0,7.197-3.022,7.474-6.976c0.29-4.132-2.825-7.717-6.957-8.006c-5.313-0.372-10.754-0.688-16.172-0.937 c-4.151-0.174-7.646,3.011-7.836,7.148S67.02,218.802,71.158,218.992z"></path>
      <path d="M201.594,288.271c-15.129-4.423-31.535-8.241-48.763-11.349c-4.079-0.734-7.978,1.974-8.712,6.05 c-0.735,4.076,1.973,7.977,6.049,8.712c16.709,3.014,32.595,6.709,47.217,10.983c0.703,0.206,1.411,0.304,2.108,0.304 c3.246,0,6.238-2.125,7.195-5.397C207.85,293.599,205.569,289.434,201.594,288.271z"></path>
      <path d="M71.158,282.992c16.106,0.739,32.065,2.065,47.434,3.939c0.308,0.038,0.615,0.057,0.917,0.057 c3.737,0,6.972-2.789,7.436-6.593c0.501-4.111-2.425-7.852-6.537-8.353c-15.741-1.921-32.08-3.278-48.563-4.035 c-4.123-0.155-7.646,3.011-7.836,7.148C63.82,279.294,67.02,282.802,71.158,282.992z"></path>
      <path d="M201.593,320.271c-24.64-7.201-51.954-12.661-81.184-16.228c-4.113-0.509-7.851,2.425-8.353,6.536 c-0.501,4.111,2.425,7.852,6.537,8.353c28.423,3.469,54.933,8.763,78.792,15.737c0.703,0.205,1.411,0.303,2.107,0.303 c3.246,0,6.239-2.125,7.195-5.397C207.85,325.598,205.569,321.433,201.593,320.271z"></path>
      <path d="M71.158,314.992c5.275,0.242,10.599,0.551,15.823,0.916c0.178,0.013,0.355,0.019,0.532,0.019 c3.903,0,7.197-3.022,7.474-6.977c0.29-4.132-2.826-7.716-6.958-8.005c-5.343-0.374-10.788-0.689-16.182-0.938 c-4.124-0.147-7.646,3.011-7.836,7.148C63.82,311.294,67.02,314.802,71.158,314.992z"></path>
      <path d="M197.385,270.669c0.702,0.205,1.411,0.303,2.107,0.303c3.246,0,6.239-2.124,7.195-5.397 c1.162-3.976-1.119-8.141-5.095-9.304c-5.233-1.529-10.708-3.01-16.271-4.4c-4.014-1.003-8.09,1.439-9.095,5.458 c-1.004,4.019,1.439,8.091,5.458,9.095C187.058,267.766,192.34,269.194,197.385,270.669z"></path>
      <path d="M71.158,250.992c27.421,1.258,54.004,4.183,79.011,8.692c0.45,0.081,0.898,0.12,1.34,0.12c3.559,0,6.718-2.544,7.372-6.17 c0.735-4.076-1.973-7.977-6.05-8.712c-25.656-4.627-52.904-7.627-80.985-8.915c-4.123-0.164-7.646,3.011-7.836,7.148 C63.82,247.294,67.021,250.803,71.158,250.992z"></path>
      <path d="M263.497,142.972c0.696,0,1.405-0.098,2.107-0.303c21.573-6.306,45.426-11.258,70.896-14.719 c4.104-0.558,6.979-4.337,6.422-8.441c-0.558-4.104-4.334-6.979-8.441-6.422c-26.208,3.562-50.797,8.67-73.084,15.184 c-3.976,1.162-6.257,5.327-5.095,9.304C257.258,140.848,260.25,142.972,263.497,142.972z"></path>
      <path d="M367.479,124.538c0.207,0,0.416-0.008,0.626-0.025c7.802-0.645,15.785-1.156,23.727-1.521 c4.138-0.189,7.338-3.698,7.148-7.836c-0.19-4.138-3.695-7.322-7.836-7.148c-8.124,0.373-16.291,0.896-24.275,1.556 c-4.128,0.341-7.198,3.964-6.857,8.092C360.336,121.574,363.616,124.538,367.479,124.538z"></path>
      <path d="M263.497,206.972c0.697,0,1.405-0.098,2.108-0.303c14.623-4.275,30.509-7.971,47.217-10.984 c4.076-0.735,6.785-4.636,6.049-8.712c-0.735-4.077-4.636-6.783-8.712-6.05c-17.227,3.107-33.633,6.926-48.763,11.348 c-3.976,1.163-6.256,5.328-5.094,9.304C257.258,204.848,260.25,206.972,263.497,206.972z"></path>
      <path d="M391.144,172.008c-16.483,0.757-32.822,2.114-48.563,4.035c-4.112,0.501-7.038,4.241-6.537,8.353 c0.464,3.804,3.698,6.593,7.436,6.593c0.303,0,0.609-0.019,0.917-0.057c15.368-1.874,31.327-3.2,47.434-3.939 c4.138-0.19,7.338-3.698,7.148-7.836C398.79,175.018,395.267,171.827,391.144,172.008z"></path>
      <path d="M263.497,174.972c0.697,0,1.405-0.098,2.107-0.303c5.042-1.475,10.324-2.902,15.7-4.246 c4.019-1.005,6.462-5.076,5.458-9.095c-1.004-4.019-5.08-6.464-9.095-5.458c-5.566,1.392-11.041,2.872-16.271,4.4 c-3.976,1.163-6.257,5.328-5.095,9.304C257.258,172.848,260.25,174.972,263.497,174.972z"></path>
      <path d="M391.144,140.008c-28.081,1.288-55.329,4.288-80.986,8.915c-4.077,0.735-6.785,4.636-6.05,8.712 c0.654,3.627,3.813,6.17,7.372,6.17c0.442,0,0.89-0.039,1.34-0.12c25.007-4.51,51.59-7.435,79.011-8.692 c4.138-0.189,7.338-3.698,7.148-7.836C398.79,143.019,395.285,139.822,391.144,140.008z"></path>
      <path d="M263.497,238.972c0.697,0,1.405-0.098,2.108-0.303c23.858-6.975,50.37-12.27,78.799-15.738 c4.112-0.501,7.038-4.241,6.537-8.353c-0.501-4.112-4.243-7.044-8.353-6.536c-29.236,3.566-56.553,9.027-81.191,16.229 c-3.976,1.163-6.256,5.328-5.094,9.304C257.258,236.848,260.25,238.972,263.497,238.972z"></path>
      <path d="M391.144,204.008c-5.417,0.249-10.858,0.563-16.173,0.937c-4.132,0.289-7.247,3.874-6.957,8.006 c0.277,3.953,3.57,6.976,7.474,6.976c0.176,0,0.354-0.006,0.532-0.019c5.195-0.364,10.515-0.672,15.813-0.915 c4.138-0.19,7.338-3.698,7.148-7.836C398.79,207.018,395.269,203.822,391.144,204.008z"></path>
      <path d="M256.301,297.574c0.957,3.273,3.949,5.397,7.195,5.397c0.697,0,1.405-0.098,2.108-0.303 c14.623-4.275,30.509-7.971,47.217-10.984c4.076-0.735,6.785-4.636,6.049-8.712c-0.735-4.077-4.636-6.782-8.712-6.05 c-17.227,3.107-33.633,6.926-48.763,11.348C257.42,289.434,255.139,293.599,256.301,297.574z"></path>
      <path d="M391.144,268.008c-16.483,0.757-32.822,2.114-48.563,4.035c-4.112,0.501-7.038,4.241-6.537,8.353 c0.464,3.804,3.698,6.593,7.436,6.593c0.303,0,0.609-0.019,0.917-0.057c15.368-1.874,31.327-3.2,47.434-3.939 c4.138-0.19,7.338-3.698,7.148-7.836C398.79,271.019,395.267,267.842,391.144,268.008z"></path>
      <path d="M342.58,304.043c-29.23,3.566-56.544,9.026-81.184,16.228c-3.976,1.162-6.257,5.327-5.095,9.304 c0.957,3.273,3.949,5.397,7.195,5.397c0.697,0,1.405-0.098,2.107-0.303c23.86-6.975,50.369-12.269,78.792-15.737 c4.112-0.501,7.038-4.241,6.537-8.353C350.431,306.467,346.688,303.532,342.58,304.043z"></path>
      <path d="M391.144,300.008c-5.394,0.248-10.838,0.563-16.183,0.938c-4.132,0.289-7.247,3.873-6.958,8.005 c0.277,3.954,3.57,6.977,7.474,6.977c0.176,0,0.354-0.006,0.532-0.019c5.226-0.365,10.549-0.674,15.823-0.916 c4.138-0.19,7.338-3.698,7.148-7.836C398.79,303.019,395.267,299.847,391.144,300.008z"></path>
      <path d="M263.497,270.972c0.697,0,1.405-0.098,2.107-0.303c5.042-1.475,10.324-2.902,15.7-4.246 c4.019-1.005,6.462-5.076,5.458-9.095c-1.004-4.019-5.08-6.461-9.095-5.458c-5.566,1.392-11.041,2.872-16.271,4.4 c-3.976,1.163-6.257,5.328-5.095,9.304C257.258,268.848,260.25,270.972,263.497,270.972z"></path>
      <path d="M391.144,236.008c-28.081,1.288-55.329,4.288-80.986,8.915c-4.077,0.735-6.785,4.636-6.05,8.712 c0.654,3.627,3.813,6.17,7.372,6.17c0.442,0,0.89-0.039,1.34-0.12c25.007-4.51,51.59-7.435,79.011-8.692 c4.138-0.189,7.338-3.698,7.148-7.836C398.79,239.019,395.285,235.837,391.144,236.008z"></path>
    </symbol>
  </defs>
</svg>
